<svg xmlns="http://www.w3.org/2000/svg" width="40" height="40" viewBox="0 0 40 40">
  <g fill="none" fill-rule="evenodd">
    <path fill="#EEEEEF" fill-rule="nonzero" d="M36 1.99999995L19 1.99999995C17.8954305 1.99999995 17 2.89543046 17 3.99999995L17 7.85999997 25.92 7.85999997 25.92 13 27 13 28 15 36 15C37.1045695 15 38 14.1045695 38 13L38 3.99999995C38 2.89543046 37.1045695 1.99999995 36 1.99999995zM5.99999995 31.77L5.99999995 23 3.99999995 23C2.89543046 23 1.99999995 23.8954305 1.99999995 25L1.99999995 36C1.99999995 37.1045695 2.89543046 38 3.99999995 38L17 38C18.1045695 38 19 37.1045695 19 36L19 31.77 5.99999995 31.77z"/>
    <path fill="#2B273C" fill-rule="nonzero" d="M27 11L25 11 25 8.99999997 8.99999997 8.99999997 8.99999997 11 6.99999997 11 6.99999997 7.99999997C6.99999997 7.44771522 7.44771522 6.99999997 7.99999997 6.99999997L26 6.99999997C26.5522848 6.99999997 27 7.44771522 27 7.99999997L27 11zM31.12 19.6L28.12 12.6C27.9604469 12.2344112 27.5988865 11.998611 27.2 11.9999939L5.88999996 11.9999939C5.49111351 11.998611 5.12955309 12.2344112 4.96999996 12.6L1.96999995 19.6C1.8342875 19.9098178 1.86438631 20.2672412 2.04999996 20.55 2.23593377 20.8323456 2.55193525 21.0016321 2.88999996 20.9999939L5.99999996 20.9999939 5.99999996 31.9999939C5.99999996 32.5522848 6.44771522 32.9999939 6.99999997 32.9999939L27 32.9999939 27 30.9999939 21 30.9999939 21 23.9999939C21 23.4477153 20.5522848 22.9999939 20 22.9999939L14 22.9999939C13.4477152 22.9999939 13 23.4477153 13 23.9999939L13 30.9999939 7.99999997 30.9999939 7.99999997 20.9999939 30.2 20.9999939C30.5379353 21.0011786 30.8536053 20.8316001 31.039193 20.549184 31.2247807 20.2667679 31.255177 19.9097238 31.12 19.6zM15 25L19 25 19 31 15 31 15 25zM7.99999997 19L4.36999996 19 6.53999997 14 26.54 14 28.71 19 7.99999997 19z"/>
    <path fill="#EF3C3C" fill-rule="nonzero" d="M35.62,21.34 C32.4997004,18.2382112 27.4602997,18.2382112 24.34,21.34 C21.2382112,24.4602996 21.2382112,29.4997004 24.34,32.62 L29.27,37.55 C29.4570715,37.7408557 29.7127541,37.8488906 29.98,37.85 C30.2472459,37.8488906 30.5029286,37.7408557 30.69,37.55 L35.62,32.62 C38.7217888,29.4997004 38.7217888,24.4602996 35.62,21.34 L35.62,21.34 Z M30,29.48 C28.9654818,29.4878581 28.029568,28.8674928 27.6338567,27.9116151 C27.2381454,26.9557373 27.4617166,25.855372 28.1990812,25.1297116 C28.9364459,24.4040512 30.0402473,24.1981133 30.9896717,24.609067 C31.9390961,25.0200207 32.5444083,25.96574 32.52,27 C32.487631,28.3715809 31.3719232,29.4695791 30,29.48 L30,29.48 Z"/>
  </g>
</svg>
